<svg width="89" height="88" viewBox="0 0 89 88" fill="none" xmlns="http://www.w3.org/2000/svg">
<path d="M48.3112 16.3535H4C2.34315 16.3535 1 17.6967 1 19.3535V84.0081C1 85.665 2.34315 87.0081 4 87.0081H68.7039C70.3608 87.0081 71.7039 85.665 71.7039 84.0081V68.0263M71.7039 53.7899V68.0263M71.7039 68.0263L53.9541 50.9348C52.8407 49.8627 51.0951 49.812 49.9213 50.8176L39.3746 59.8536" stroke="#242424" stroke-width="0.7"/>
<path d="M1 58.0001L16.798 42.8533C17.9581 41.741 19.7886 41.7405 20.9493 42.8521L64.8468 84.8952M71.7039 0V39.5455M71.7039 39.5455L55.4079 23.9909M71.7039 39.5455L88 23.9909" stroke="#242424" stroke-width="0.7"/>
</svg>
