<svg width="18" height="20" viewBox="0 0 18 20" fill="none" xmlns="http://www.w3.org/2000/svg">
<path d="M14.4669 15.9143V13.3429M14.4669 15.9143V18.4857M14.4669 15.9143H11.9337M14.4669 15.9143H17M11.4271 11.9276C10.4962 11.5148 9.46818 11.2857 8.38734 11.2857C4.88372 11.2857 1.93384 13.6926 1.0548 16.9664C0.760483 18.0626 1.69528 19 2.81449 19H9.4006M11.9337 4.6C11.9337 6.58823 10.346 8.2 8.38734 8.2C6.42872 8.2 4.841 6.58823 4.841 4.6C4.841 2.61177 6.42872 1 8.38734 1C10.346 1 11.9337 2.61177 11.9337 4.6Z" stroke="#535353" stroke-linecap="round"/>
</svg>
