<svg width="27" height="30" viewBox="0 0 27 30" fill="none" xmlns="http://www.w3.org/2000/svg">
<path d="M11.1389 27.5929C11.3714 28.019 11.7131 28.3744 12.1285 28.6219C12.5438 28.8694 13.0175 29 13.5 29C13.9825 29 14.4562 28.8694 14.8715 28.6219C15.2869 28.3744 15.6286 28.019 15.8611 27.5929M5.16667 9.39776C5.16667 7.17054 6.04464 5.03453 7.60744 3.45965C9.17025 1.88476 11.2899 1 13.5 1C15.7101 1 17.8298 1.88476 19.3926 3.45965C20.9554 5.03453 21.8333 7.17054 21.8333 9.39776C21.8333 19.1951 26 21.9944 26 21.9944H1C1 21.9944 5.16667 19.1951 5.16667 9.39776Z" stroke="#242424" stroke-width="2" stroke-linecap="round" stroke-linejoin="round"/>
</svg>
