<svg
    width="30"
    height="30"
    viewBox="0 0 30 30"
    fill="none"
    xmlns="http://www.w3.org/2000/svg"
>
    <path
        d="M11.1682 20.7519C12.3584 22.2215 13.8977 23.0199 15.6237 23.4595C16.5607 23.6985 18.985 23.29 19.6087 23.8383C20.9227 25.029 22.4304 25.7823 24.1049 26.1623C24.2572 26.1965 24.4134 26.2184 24.5676 26.2422C24.7631 26.273 24.9231 26.2149 25.0235 26.018C25.1231 25.8211 25.0869 25.6421 24.9625 25.4794C24.8177 25.2907 24.6705 25.1035 24.5125 24.9299C24.0534 24.4276 23.6899 23.8369 23.4386 23.1914C23.2585 22.7285 23.4597 22.2268 23.8536 21.9241C23.9369 21.8601 24.0191 21.7949 24.0999 21.7274C24.8534 21.1034 25.4792 20.3569 25.8627 19.4081C26.4854 17.87 26.3451 16.3854 25.5287 14.9738C24.8887 13.8669 24.0142 13.0734 22.9897 12.5M5.90012 14.2274C5.98085 14.2949 6.06311 14.3601 6.14637 14.4241C6.5403 14.7267 6.74146 15.2285 6.56132 15.6914C6.31017 16.3369 5.94659 16.9276 5.48755 17.4299C5.3295 17.6035 5.18222 17.7908 5.0375 17.9794C4.91307 18.1421 4.8769 18.3212 4.97656 18.518C5.07685 18.7149 5.23682 18.773 5.43232 18.7423C5.58659 18.7184 5.74274 18.6965 5.89509 18.6623C7.56969 18.2823 9.07724 17.529 10.3912 16.3382C11.0149 15.79 13.4392 16.1985 14.3762 15.9595C16.1022 15.5199 17.6416 14.7215 18.8317 13.2519C20.3006 11.4377 20.394 8.9906 19.0571 7.07653C18.1247 5.74289 16.8666 4.9069 15.4231 4.38601C12.9556 3.49533 10.487 3.54319 8.0469 4.51043C6.57479 5.0935 5.31797 6.00955 4.47119 7.47375C3.65485 8.88541 3.51459 10.37 4.1373 11.9081C4.52075 12.8569 5.14665 13.6034 5.90012 14.2274Z"
        stroke="#787878"
        stroke-width="1.5"
        stroke-linecap="round"
    />
</svg>