<svg width="21" height="17" viewBox="0 0 21 17" fill="none" xmlns="http://www.w3.org/2000/svg">
<path d="M1 16C1 13.2888 3.46243 11.5 6.5 11.5C9.5376 11.5 12 13.2888 12 16M20 13.5C20 10.7888 17.5376 9 14.5 9C13.3924 9 12.3621 9.2256 11.5 9.6458M9 6C9 7.3807 7.88071 8.5 6.5 8.5C5.11929 8.5 4 7.3807 4 6C4 4.61929 5.11929 3.5 6.5 3.5C7.88071 3.5 9 4.61929 9 6ZM17 3.5C17 4.88071 15.8807 6 14.5 6C13.1193 6 12 4.88071 12 3.5C12 2.11929 13.1193 1 14.5 1C15.8807 1 17 2.11929 17 3.5Z" stroke="#8C8C8C" stroke-width="1.25" stroke-linecap="round"/>
</svg>
