<svg width="33" height="32" viewBox="0 0 33 32" fill="none" xmlns="http://www.w3.org/2000/svg">
<path d="M23.5065 10.7978C22.7443 10.0749 21.7196 9.66991 20.6524 9.66991C19.5852 9.66991 18.5605 10.0749 17.7983 10.7978L17.309 11.4291L16.7382 10.9557C16.3643 10.564 15.9099 10.2525 15.4041 10.0411C14.8982 9.82971 14.3523 9.72315 13.8014 9.72827C13.2504 9.7334 12.7067 9.85009 12.2052 10.0709C11.7037 10.2916 11.2555 10.6115 10.8894 11.0101C10.5234 11.4086 10.2476 11.8768 10.0799 12.3847C9.91213 12.8926 9.85613 13.4288 9.91546 13.9589C9.97479 14.489 10.1482 15.0012 10.4244 15.4625C10.7006 15.9239 11.0736 16.3241 11.5193 16.6375L17.3906 22.1616L23.2618 16.6375C25.2189 14.7436 25.0558 12.3761 23.588 10.7978M10.6223 27.8434C13.735 29.3887 17.3157 29.8072 20.7191 29.0236C24.1225 28.2401 27.1247 26.3059 29.1849 23.5697C31.245 20.8335 32.2276 17.4751 31.9555 14.0999C31.6834 10.7246 30.1746 7.55439 27.7009 5.16047C25.2271 2.76655 21.9512 1.30636 18.4635 1.04305C14.9757 0.779734 11.5054 1.7306 8.678 3.7243C5.85058 5.71801 3.85195 8.62343 3.04226 11.917C2.23256 15.2106 2.66506 18.6758 4.26181 21.6881L1 31L10.6223 27.8434Z" stroke="#242424" stroke-width="2" stroke-linecap="round" stroke-linejoin="round"/>
</svg>
