<svg width="34" height="34" viewBox="0 0 34 34" fill="none" xmlns="http://www.w3.org/2000/svg">
<path d="M12.214 16.9937L15.4131 20.194L21.8111 13.7935M3.97658 11.5853C3.74312 10.5332 3.77897 9.43922 4.0808 8.40473C4.38263 7.37023 4.94068 6.42873 5.7032 5.6675C6.46572 4.90628 7.40802 4.34998 8.44274 4.0502C9.47746 3.75041 10.5711 3.71684 11.6222 3.9526C12.2008 3.0474 12.9978 2.30247 13.9398 1.78647C14.8819 1.27047 15.9386 1 17.0126 1C18.0866 1 19.1433 1.27047 20.0853 1.78647C21.0273 2.30247 21.8244 3.0474 22.4029 3.9526C23.4557 3.71582 24.5512 3.74924 25.5875 4.04975C26.6239 4.35026 27.5675 4.90811 28.3304 5.67139C29.0934 6.43468 29.6511 7.37861 29.9515 8.41539C30.2518 9.45216 30.2853 10.5481 30.0486 11.6013C30.9534 12.18 31.698 12.9774 32.2138 13.9198C32.7296 14.8622 33 15.9193 33 16.9937C33 18.0681 32.7296 19.1253 32.2138 20.0677C31.698 21.0101 30.9534 21.8074 30.0486 22.3862C30.2842 23.4378 30.2507 24.5318 29.951 25.5669C29.6513 26.6021 29.0953 27.5447 28.3343 28.3076C27.5734 29.0704 26.6323 29.6286 25.5982 29.9306C24.5641 30.2325 23.4705 30.2684 22.4189 30.0349C21.8411 30.9435 21.0435 31.6916 20.0998 32.21C19.1562 32.7283 18.0971 33 17.0206 33C15.9441 33 14.8849 32.7283 13.9413 32.21C12.9977 31.6916 12.2 30.9435 11.6222 30.0349C10.5711 30.2706 9.47746 30.237 8.44274 29.9373C7.40802 29.6375 6.46572 29.0812 5.7032 28.32C4.94068 27.5587 4.38263 26.6172 4.0808 25.5827C3.77897 24.5482 3.74312 23.4542 3.97658 22.4022C3.06479 21.8249 2.31375 21.0264 1.79333 20.0807C1.27291 19.1351 1 18.0732 1 16.9937C1 15.9143 1.27291 14.8523 1.79333 13.9067C2.31375 12.9611 3.06479 12.1625 3.97658 11.5853Z" stroke="#242424" stroke-width="2" stroke-linecap="round" stroke-linejoin="round"/>
</svg>
