<svg width="133" height="75" viewBox="0 0 133 75" fill="none" xmlns="http://www.w3.org/2000/svg">
<path d="M90.54 50.96C88.18 50.96 85.98 50.64 83.94 50C81.94 49.32 80.18 48.32 78.66 47C77.18 45.68 76 44.02 75.12 42.02C74.28 40.02 73.86 37.68 73.86 35C73.86 32.36 74.28 30.1 75.12 28.22C76 26.3 77.14 24.74 78.54 23.54C79.94 22.3 81.54 21.4 83.34 20.84C85.14 20.24 86.98 19.94 88.86 19.94C90.98 19.94 92.9 20.26 94.62 20.9C96.38 21.54 97.88 22.42 99.12 23.54C100.4 24.66 101.38 26 102.06 27.56C102.78 29.12 103.14 30.82 103.14 32.66C103.14 34.02 102.76 35.06 102 35.78C101.24 36.5 100.18 36.96 98.82 37.16L84 39.38C84.44 40.7 85.34 41.7 86.7 42.38C88.06 43.02 89.62 43.34 91.38 43.34C93.02 43.34 94.56 43.14 96 42.74C97.48 42.3 98.68 41.8 99.6 41.24C100.24 41.64 100.78 42.2 101.22 42.92C101.66 43.64 101.88 44.4 101.88 45.2C101.88 47 101.04 48.34 99.36 49.22C98.08 49.9 96.64 50.36 95.04 50.6C93.44 50.84 91.94 50.96 90.54 50.96ZM88.86 27.38C87.9 27.38 87.06 27.54 86.34 27.86C85.66 28.18 85.1 28.6 84.66 29.12C84.22 29.6 83.88 30.16 83.64 30.8C83.44 31.4 83.32 32.02 83.28 32.66L93.54 30.98C93.42 30.18 92.98 29.38 92.22 28.58C91.46 27.78 90.34 27.38 88.86 27.38ZM132.65 41.3C132.65 44.34 131.51 46.72 129.23 48.44C126.95 50.16 123.59 51.02 119.15 51.02C117.47 51.02 115.91 50.9 114.47 50.66C113.03 50.42 111.79 50.06 110.75 49.58C109.75 49.06 108.95 48.42 108.35 47.66C107.79 46.9 107.51 46 107.51 44.96C107.51 44 107.71 43.2 108.11 42.56C108.51 41.88 108.99 41.32 109.55 40.88C110.71 41.52 112.03 42.1 113.51 42.62C115.03 43.1 116.77 43.34 118.73 43.34C119.97 43.34 120.91 43.16 121.55 42.8C122.23 42.44 122.57 41.96 122.57 41.36C122.57 40.8 122.33 40.36 121.85 40.04C121.37 39.72 120.57 39.46 119.45 39.26L117.65 38.9C114.17 38.22 111.57 37.16 109.85 35.72C108.17 34.24 107.33 32.14 107.33 29.42C107.33 27.94 107.65 26.6 108.29 25.4C108.93 24.2 109.83 23.2 110.99 22.4C112.15 21.6 113.53 20.98 115.13 20.54C116.77 20.1 118.57 19.88 120.53 19.88C122.01 19.88 123.39 20 124.67 20.24C125.99 20.44 127.13 20.76 128.09 21.2C129.05 21.64 129.81 22.22 130.37 22.94C130.93 23.62 131.21 24.44 131.21 25.4C131.21 26.32 131.03 27.12 130.67 27.8C130.35 28.44 129.93 28.98 129.41 29.42C129.09 29.22 128.61 29.02 127.97 28.82C127.33 28.58 126.63 28.38 125.87 28.22C125.11 28.02 124.33 27.86 123.53 27.74C122.77 27.62 122.07 27.56 121.43 27.56C120.11 27.56 119.09 27.72 118.37 28.04C117.65 28.32 117.29 28.78 117.29 29.42C117.29 29.86 117.49 30.22 117.89 30.5C118.29 30.78 119.05 31.04 120.17 31.28L122.03 31.7C125.87 32.58 128.59 33.8 130.19 35.36C131.83 36.88 132.65 38.86 132.65 41.3Z" fill="#242424"/>
<path d="M12.22 35.54C10.46 34.94 8.86 34.34 7.42 33.74C5.98 33.1 4.74 32.34 3.7 31.46C2.66 30.58 1.84 29.54 1.24 28.34C0.68 27.1 0.4 25.6 0.4 23.84C0.4 20.44 1.7 17.72 4.3 15.68C6.94 13.64 10.62 12.62 15.34 12.62C17.06 12.62 18.66 12.74 20.14 12.98C21.62 13.22 22.88 13.6 23.92 14.12C25 14.6 25.84 15.24 26.44 16.04C27.04 16.8 27.34 17.7 27.34 18.74C27.34 19.78 27.1 20.68 26.62 21.44C26.14 22.16 25.56 22.78 24.88 23.3C24 22.74 22.82 22.26 21.34 21.86C19.86 21.42 18.24 21.2 16.48 21.2C14.68 21.2 13.36 21.46 12.52 21.98C11.68 22.46 11.26 23.08 11.26 23.84C11.26 24.44 11.52 24.94 12.04 25.34C12.56 25.7 13.34 26.04 14.38 26.36L17.56 27.38C21.32 28.58 24.2 30.12 26.2 32C28.24 33.84 29.26 36.36 29.26 39.56C29.26 42.96 27.92 45.72 25.24 47.84C22.56 49.92 18.62 50.96 13.42 50.96C11.58 50.96 9.86 50.8 8.26 50.48C6.7 50.2 5.32 49.78 4.12 49.22C2.96 48.62 2.04 47.9 1.36 47.06C0.72 46.18 0.4 45.18 0.4 44.06C0.4 42.9 0.74 41.92 1.42 41.12C2.1 40.28 2.84 39.64 3.64 39.2C4.76 40.08 6.12 40.84 7.72 41.48C9.36 42.12 11.14 42.44 13.06 42.44C15.02 42.44 16.4 42.14 17.2 41.54C18 40.94 18.4 40.24 18.4 39.44C18.4 38.64 18.08 38.04 17.44 37.64C16.8 37.2 15.9 36.78 14.74 36.38L12.22 35.54Z" fill="#242424"/>
<path d="M42.3679 72.1635C43.4088 73.3132 45.0413 73.7357 46.5325 73.3094C49.2724 72.5262 50.5034 69.3236 49.1859 66.7968C42.9703 54.876 37.2924 36.4904 51.1806 35.2194C63.6749 34.0759 63.6536 42.7619 59.2594 45.9919C56.3721 48.1141 51.1806 50.6114 51.1806 54.1947C51.1806 56.8361 53.5582 58.8183 55.8781 57.5555C66.0083 52.0416 75.0228 34.9175 67.2591 27.032C46.2423 5.68539 15.7981 42.8158 42.3679 72.1635Z" fill="#242424" stroke="#242424" stroke-width="2"/>
<circle cx="52.7103" cy="9.42903" r="9.42903" fill="#242424"/>
<circle cx="55.6934" cy="29.3614" r="5.49032" fill="#FBFBFB"/>
</svg>
