<svg width="21" height="21" viewBox="0 0 21 21" fill="none" xmlns="http://www.w3.org/2000/svg">
<rect x="11.5" y="11.5" width="9" height="9" rx="2.5" fill="#D7E5E5" stroke="#D7E5E5"/>
<path d="M0.5 14C0.5 12.6193 1.61929 11.5 3 11.5H7.84018C8.71086 11.5 9.55028 11.1755 10.1945 10.5898L12.567 8.43304L10.4102 10.8055C9.82453 11.4497 9.5 12.2891 9.5 13.1598V18C9.5 19.3807 8.38071 20.5 7 20.5H3C1.61929 20.5 0.5 19.3807 0.5 18V14Z" fill="#D7E5E5" stroke="#D7E5E5"/>
<path d="M18 0.5C19.3807 0.5 20.5 1.61929 20.5 3V7C20.5 8.38071 19.3807 9.5 18 9.5H13.1203C12.2774 9.5 11.4628 9.80421 10.8262 10.3567L7.38942 13.3396L7.24782 13.2181L10.3988 10.2525C11.1015 9.59107 11.5 8.66884 11.5 7.70378V3C11.5 1.61929 12.6193 0.5 14 0.5H18Z" fill="#D7E5E5" stroke="#D7E5E5"/>
<rect x="0.5" y="0.5" width="9" height="9" rx="2.5" fill="#D7E5E5" stroke="#D7E5E5"/>
</svg>
