<svg width="39" height="39" viewBox="0 0 39 39" fill="none" xmlns="http://www.w3.org/2000/svg">
<path d="M25.1875 25.1875C22.0464 28.3286 16.9536 28.3286 13.8125 25.1875M34.9375 19.5C34.9375 28.0259 28.0259 34.9375 19.5 34.9375C10.9741 34.9375 4.0625 28.0259 4.0625 19.5C4.0625 10.9741 10.9741 4.0625 19.5 4.0625C28.0259 4.0625 34.9375 10.9741 34.9375 19.5ZM16.25 16.25C16.25 17.1475 15.5225 17.875 14.625 17.875C13.7275 17.875 13 17.1475 13 16.25C13 15.3525 13.7275 14.625 14.625 14.625C15.5225 14.625 16.25 15.3525 16.25 16.25ZM26 16.25C26 17.1475 25.2725 17.875 24.375 17.875C23.4775 17.875 22.75 17.1475 22.75 16.25C22.75 15.3525 23.4775 14.625 24.375 14.625C25.2725 14.625 26 15.3525 26 16.25Z" stroke="#535353" stroke-width="1.25" stroke-linecap="round"/>
</svg>
