<svg width="25" height="25" viewBox="0 0 25 25" fill="none" xmlns="http://www.w3.org/2000/svg">
<path d="M18.75 7.29232H19.2708C19.8461 7.29232 20.3125 6.82594 20.3125 6.25065V5.72982C20.3125 5.15453 19.8461 4.68815 19.2708 4.68815H16.1458M18.75 7.29232V19.7923C18.75 20.9429 17.8173 21.8757 16.6667 21.8757H8.33333C7.18274 21.8757 6.25 20.9429 6.25 19.7923V7.29232M18.75 7.29232H6.25M16.1458 4.68815V4.16732C16.1458 3.01672 15.2131 2.08398 14.0625 2.08398H10.9375C9.78691 2.08398 8.85417 3.01672 8.85417 4.16732V4.68815M16.1458 4.68815H8.85417M6.25 7.29232H5.72917C5.15387 7.29232 4.6875 6.82594 4.6875 6.25065V5.72982C4.6875 5.15453 5.15387 4.68815 5.72917 4.68815H8.85417M10.4167 10.9382V18.2298M14.5833 10.9382V18.2298" stroke="#242424" stroke-width="1.25" stroke-linecap="round"/>
</svg>
